<svg version="1.1" id="Layer_1" xmlns="http://www.w3.org/2000/svg" xmlns:xlink="http://www.w3.org/1999/xlink" x="0px" y="0px"
	 width="100%" viewBox="0 0 115 154" enable-background="new 0 0 115 154" xml:space="preserve">
<path fill="#FFFEFD" opacity="1.000000" stroke="none" 
	d="
M116.000000,81.000000 
	C116.000000,105.645538 116.000000,130.291077 116.000000,154.968307 
	C77.720650,154.968307 39.441265,154.968307 1.080941,154.968307 
	C1.080941,103.764709 1.080941,52.529247 1.080941,1.146893 
	C39.332958,1.146893 77.666389,1.146893 116.000000,1.146893 
	C116.000000,18.425753 116.000000,35.744217 115.852676,53.854645 
	C113.114113,62.134533 110.654465,69.671852 107.871033,77.087646 
	C106.647209,80.348206 108.170815,81.489075 110.819382,81.738708 
	C112.508041,81.897873 114.270584,81.273216 116.000000,81.000000 
M71.500008,94.850273 
	C56.864567,94.868141 42.228920,94.846214 27.593779,94.922165 
	C21.142052,94.955643 20.642462,95.749138 20.843866,102.281044 
	C21.434906,121.449600 34.943501,131.155807 48.738716,140.692703 
	C49.524490,141.235931 50.255478,142.346954 51.020992,142.355194 
	C58.484432,142.435593 65.950081,142.357239 73.414070,142.251450 
	C74.005165,142.243073 74.640160,141.762527 75.166969,141.380417 
	C78.049126,139.289886 80.749352,136.901581 83.794899,135.091400 
	C96.641479,127.455811 102.590973,115.819115 103.673599,101.340248 
	C103.963814,97.458984 102.360916,94.988487 97.942764,95.006767 
	C89.462204,95.041878 80.980972,94.911163 71.500008,94.850273 
M47.555450,52.691017 
	C50.409966,55.882927 52.863857,59.597866 56.203743,62.156105 
	C62.827499,67.229675 68.860466,72.361664 67.978111,82.145416 
	C77.817139,74.947243 77.185364,63.327332 67.108093,55.341953 
	C60.393143,50.020931 52.577713,45.541000 53.673889,34.685722 
	C47.241028,39.643639 44.909550,46.451206 47.555450,52.691017 
M71.161713,47.360062 
	C77.019188,52.023422 81.626640,57.376427 80.056206,66.509697 
	C89.194809,58.442505 87.618118,49.621777 82.109833,43.236427 
	C80.605721,41.492828 78.780907,39.974010 76.920845,38.598755 
	C70.483139,33.838947 65.170250,28.456055 66.125008,19.040943 
	C58.078949,26.360943 57.901108,36.004585 65.111511,42.620491 
	C66.816643,44.185036 68.771172,45.477779 71.161713,47.360062 
M49.742294,84.139702 
	C50.238094,86.159599 50.733894,88.179504 51.257641,90.313263 
	C59.541237,85.106918 60.238777,77.787666 53.243729,70.788368 
	C47.861599,65.402969 40.477543,61.461502 41.598061,51.452690 
	C32.654499,59.120338 32.522095,66.882126 40.045410,73.930336 
	C43.293591,76.973389 46.305527,80.268623 49.742294,84.139702 
z"/>
<path fill="#F4A72B" opacity="1.000000" stroke="none" 
	d="
M72.000015,94.849754 
	C80.980972,94.911163 89.462204,95.041878 97.942764,95.006767 
	C102.360916,94.988487 103.963814,97.458984 103.673599,101.340248 
	C102.590973,115.819115 96.641479,127.455811 83.794899,135.091400 
	C80.749352,136.901581 78.049126,139.289886 75.166969,141.380417 
	C74.640160,141.762527 74.005165,142.243073 73.414070,142.251450 
	C65.950081,142.357239 58.484432,142.435593 51.020992,142.355194 
	C50.255478,142.346954 49.524490,141.235931 48.738716,140.692703 
	C34.943501,131.155807 21.434906,121.449600 20.843866,102.281044 
	C20.642462,95.749138 21.142052,94.955643 27.593779,94.922165 
	C42.228920,94.846214 56.864567,94.868141 72.000015,94.849754 
M28.146845,110.269058 
	C30.843485,118.470657 35.484074,125.001968 43.747818,128.517731 
	C36.354649,121.272301 32.305519,112.425934 30.993477,102.273438 
	C28.884201,102.273438 27.228935,102.273438 25.814209,102.273438 
	C26.579710,104.833374 27.277946,107.168381 28.146845,110.269058 
z"/>
<path fill="#F4A931" opacity="1.000000" stroke="none" 
	d="
M47.376320,52.347061 
	C44.909550,46.451206 47.241028,39.643639 53.673889,34.685722 
	C52.577713,45.541000 60.393143,50.020931 67.108093,55.341953 
	C77.185364,63.327332 77.817139,74.947243 67.978111,82.145416 
	C68.860466,72.361664 62.827499,67.229675 56.203743,62.156105 
	C52.863857,59.597866 50.409966,55.882927 47.376320,52.347061 
z"/>
<path fill="#F4A92F" opacity="1.000000" stroke="none" 
	d="
M70.886345,47.127808 
	C68.771172,45.477779 66.816643,44.185036 65.111511,42.620491 
	C57.901108,36.004585 58.078949,26.360943 66.125008,19.040943 
	C65.170250,28.456055 70.483139,33.838947 76.920845,38.598755 
	C78.780907,39.974010 80.605721,41.492828 82.109833,43.236427 
	C87.618118,49.621777 89.194809,58.442505 80.056206,66.509697 
	C81.626640,57.376427 77.019188,52.023422 70.886345,47.127808 
z"/>
<path fill="#F4A930" opacity="1.000000" stroke="none" 
	d="
M49.583538,83.794495 
	C46.305527,80.268623 43.293591,76.973389 40.045410,73.930336 
	C32.522095,66.882126 32.654499,59.120338 41.598061,51.452690 
	C40.477543,61.461502 47.861599,65.402969 53.243729,70.788368 
	C60.238777,77.787666 59.541237,85.106918 51.257641,90.313263 
	C50.733894,88.179504 50.238094,86.159599 49.583538,83.794495 
z"/>
<path fill="#FEF5E5" opacity="1.000000" stroke="none" 
	d="
M28.061516,109.886215 
	C27.277946,107.168381 26.579710,104.833374 25.814209,102.273438 
	C27.228935,102.273438 28.884201,102.273438 30.993477,102.273438 
	C32.305519,112.425934 36.354649,121.272301 43.747818,128.517731 
	C35.484074,125.001968 30.843485,118.470657 28.061516,109.886215 
z"/>
</svg>